<?xml version="1.0" encoding="utf-8"?>
<!-- Generator: Adobe Illustrator 13.0.0, SVG Export Plug-In  -->
<!DOCTYPE svg PUBLIC "-//W3C//DTD SVG 1.1//EN" "http://www.w3.org/Graphics/SVG/1.1/DTD/svg11.dtd" [
	<!ENTITY ns_flows "http://ns.adobe.com/Flows/1.0/">
]>
<svg version="1.1"
	 xmlns="http://www.w3.org/2000/svg" xmlns:xlink="http://www.w3.org/1999/xlink" xmlns:a="http://ns.adobe.com/AdobeSVGViewerExtensions/3.0/"
	 x="0px" y="0px" width="340px" height="343px" viewBox="2 0.5 340 343" enable-background="new 2 0.5 340 343"
	 xml:space="preserve">
<defs>
</defs>
<rect fill="#961C1F" width="343" height="343"/>
<path fill="#FFFFFF" d="M29.869,35.748h-1.81c0.297-2.63,0.564-5.578,0.799-8.842c6.936,0.167,11.883,0.249,14.842,0.249
	c2.458,0,6.936-0.083,13.434-0.249c0.204,3.371,0.438,6.318,0.705,8.842h-1.763c-0.735-2.766-1.212-4.387-1.431-4.863
	c-0.219-0.476-0.536-0.816-0.95-1.021c-0.415-0.204-1.466-0.306-3.154-0.306h-5.207c-0.125,4.021-0.188,8.994-0.188,14.919
	c0,5.502,0.063,9.22,0.188,11.155c0.031,0.454,0.149,0.763,0.353,0.93c0.266,0.212,1.559,0.537,3.878,0.975
	c0.219,0.031,0.548,0.099,0.987,0.204v1.338c-3.103-0.167-5.869-0.25-8.297-0.25c-2.304,0-4.662,0.083-7.075,0.25V57.74
	c0.548-0.136,0.964-0.227,1.246-0.272c2.146-0.348,3.384-0.642,3.713-0.884c0.141-0.121,0.247-0.291,0.317-0.51
	c0.07-0.219,0.129-1.893,0.176-5.022c0.063-4.836,0.094-8.419,0.094-10.747c0-4.066-0.032-7.648-0.094-10.747H35.04l-1.01,0.023
	c-0.894,0-1.481,0.09-1.763,0.272c-0.439,0.257-0.831,0.801-1.175,1.632C30.825,32.12,30.417,33.541,29.869,35.748z"/>
<path fill="#FFFFFF" d="M108.768,45.061c-1.941,0-3.312-1.419-3.312-3.311c0-1.944,1.427-3.311,3.426-3.311s3.369,1.366,3.369,3.311
	c0,1.892-1.313,3.311-3.426,3.311H108.768z"/>
<path fill="#FFFFFF" d="M183.854,41.254l-0.021-1.68l-0.023-5.087l-0.045-4.424c-0.016-0.663-0.105-1.073-0.271-1.23
	c-0.242-0.268-0.833-0.473-1.771-0.615l-3.066-0.71v-1.396c3.486,0.174,6.009,0.26,7.563,0.26c1.705,0,4.067-0.086,7.087-0.26v1.396
	c-2.486,0.537-3.89,0.875-4.205,1.018c-0.316,0.143-0.527,0.3-0.634,0.473c-0.166,0.284-0.257,1.152-0.271,2.603
	c-0.03,2.366-0.047,6.42-0.047,12.162l0.092,11.215v0.663c0,0.742,0.13,1.215,0.389,1.419c0.426,0.332,1.999,0.742,4.723,1.23v1.396
	c-4.162-0.174-6.805-0.26-7.929-0.26c-1.868,0-4.139,0.086-6.812,0.26V58.29l4.175-0.97c0.258-0.11,0.456-0.268,0.593-0.473
	c0.213-0.331,0.327-0.954,0.342-1.869l0.114-11.121c-3.987-0.079-7.043-0.118-9.166-0.118c-2.289,0-4.708,0.04-7.254,0.118
	l0.068,11.428c0,0.82,0.075,1.341,0.226,1.562c0.15,0.221,0.542,0.426,1.176,0.615c0.151,0.047,1.387,0.324,3.708,0.828v1.396
	c-3.69-0.174-6.298-0.26-7.824-0.26c-1.89,0-4.181,0.086-6.871,0.26V58.29c1.635-0.378,2.854-0.646,3.657-0.804
	c0.605-0.11,0.991-0.268,1.158-0.474c0.227-0.268,0.34-0.828,0.34-1.68c0.045-3.013,0.068-7.319,0.068-12.919l-0.114-11.712v-0.757
	c0-0.552-0.087-0.935-0.26-1.147c-0.173-0.213-0.539-0.39-1.097-0.532l-3.753-0.757v-1.396c3.063,0.174,5.618,0.26,7.666,0.26
	c2.153,0,4.511-0.086,7.075-0.26v1.396l-3.833,0.781c-0.487,0.126-0.822,0.304-1.004,0.533c-0.183,0.229-0.274,0.635-0.274,1.218
	l-0.113,11.215c2.338,0.047,4.805,0.071,7.4,0.071C178.168,41.325,181.184,41.301,183.854,41.254z"/>
<path fill="#FFFFFF" d="M243.768,45.061c-1.94,0-3.312-1.419-3.312-3.311c0-1.944,1.428-3.311,3.426-3.311
	c1.999,0,3.369,1.366,3.369,3.311c0,1.892-1.313,3.311-3.426,3.311H243.768z"/>
<path fill="#FFFFFF" d="M299.682,41.262h5.006c1.932,0,3.068-0.06,3.414-0.178c0.344-0.118,0.623-0.359,0.838-0.724
	c0.213-0.364,0.479-1.416,0.796-3.155c0.041-0.174,0.104-0.443,0.187-0.807h1.365c-0.152,2.61-0.229,4.619-0.229,6.027
	c0,1.456,0.075,3.448,0.229,5.979h-1.365c-0.399-2.293-0.647-3.575-0.745-3.844c-0.138-0.379-0.379-0.652-0.724-0.818
	c-0.346-0.166-1.372-0.25-3.082-0.25h-5.668l0.104,13.952h8.668l0.766-0.024c1.186,0,1.93-0.055,2.232-0.166
	c0.524-0.206,0.986-0.549,1.387-1.032c0.399-0.482,1.138-1.847,2.214-4.093c0.108-0.221,0.274-0.546,0.496-0.973h1.427
	c-0.165,0.506-1.021,3.479-2.564,8.921c-5.02-0.174-9.604-0.261-13.755-0.261c-2.896,0-6.095,0.087-9.598,0.261v-1.4l3.351-0.831
	c0.538-0.174,0.869-0.348,0.993-0.522c0.207-0.3,0.312-0.925,0.312-1.875v-0.427l0.104-5.576c0.014-1.075,0.021-3.187,0.021-6.335
	c0-4.571-0.014-7.92-0.041-10.048c-0.028-2.127-0.098-3.333-0.207-3.618c-0.084-0.19-0.211-0.344-0.383-0.463
	c-0.174-0.119-0.812-0.32-1.914-0.605l-2.233-0.569v-1.4c2.593,0.174,5.688,0.261,9.287,0.261c1.972,0,6.659-0.087,14.064-0.261
	c0.027,2.737,0.193,5.441,0.496,8.115h-1.446c-0.553-2.151-1-3.583-1.346-4.295c-0.233-0.49-0.523-0.814-0.869-0.973
	c-0.454-0.206-1.462-0.309-3.02-0.309h-8.355l-0.146,7.64L299.682,41.262z"/>
<path fill="#FFFFFF" d="M21.996,119.058c0-13.606,4.771-24.776,14.311-33.51c9.541-8.732,21.799-13.099,36.776-13.099
	c13.938,0,25.035,3.857,33.291,11.574c8.255,7.716,12.382,18.337,12.382,31.861c0,15.019-4.646,26.873-13.938,35.563
	c-9.293,8.691-21.518,13.037-36.675,13.037c-14.209,0-25.453-3.941-33.73-11.824C26.134,144.781,21.996,133.58,21.996,119.058z
	 M36.814,117.222c0,13.7,3.259,23.987,9.777,30.858c6.518,6.871,14.762,10.307,24.731,10.307c6.586,0,12.427-1.599,17.525-4.796
	c5.097-3.196,8.954-7.878,11.57-14.043s3.925-12.984,3.925-20.458c0-9.383-1.67-17.168-5.007-23.354S91.87,85.118,86.954,82.44
	c-4.918-2.678-10.444-4.017-16.578-4.017c-6.722,0-12.744,1.63-18.066,4.889c-5.323,3.26-9.236,7.973-11.74,14.138
	C38.066,103.615,36.814,110.206,36.814,117.222z"/>
<path fill="#FFFFFF" d="M227.496,118.058c0-13.606,4.771-24.776,14.311-33.51c9.541-8.732,21.799-13.099,36.776-13.099
	c13.938,0,25.035,3.857,33.291,11.574c8.255,7.716,12.382,18.337,12.382,31.861c0,15.019-4.646,26.873-13.938,35.563
	c-9.293,8.691-21.519,13.037-36.676,13.037c-14.209,0-25.453-3.941-33.729-11.824C231.634,143.781,227.496,132.58,227.496,118.058z
	 M242.314,116.222c0,13.7,3.259,23.987,9.776,30.858c6.519,6.871,14.763,10.307,24.731,10.307c6.586,0,12.427-1.599,17.525-4.796
	c5.096-3.196,8.953-7.878,11.569-14.043s3.925-12.984,3.925-20.458c0-9.383-1.67-17.168-5.007-23.354
	c-3.339-6.187-7.467-10.619-12.383-13.297c-4.918-2.678-10.444-4.017-16.578-4.017c-6.722,0-12.744,1.63-18.065,4.889
	c-5.324,3.26-9.236,7.973-11.74,14.138C243.566,102.615,242.314,109.206,242.314,116.222z"/>
<path fill="#FFFFFF" d="M176.413,112.802l-0.056-4.641l-0.053-14.051l-0.109-12.222c-0.036-1.83-0.254-2.962-0.652-3.398
	c-0.58-0.741-1.994-1.307-4.241-1.7l-7.341-1.96v-3.856c8.348,0.48,14.383,0.719,18.107,0.719c4.082,0,9.738-0.239,16.968-0.719
	v3.856c-5.955,1.482-9.312,2.418-10.069,2.811c-0.758,0.392-1.264,0.828-1.516,1.307c-0.398,0.784-0.614,3.181-0.65,7.189
	c-0.072,6.536-0.107,17.734-0.107,33.593l0.217,30.979v1.83c0,2.048,0.311,3.355,0.929,3.921c1.021,0.915,4.788,2.048,11.308,3.398
	v3.856c-9.965-0.48-16.291-0.719-18.982-0.719c-4.473,0-9.91,0.239-16.31,0.719v-3.856l9.996-2.68
	c0.618-0.304,1.092-0.74,1.42-1.307c0.51-0.915,0.783-2.635,0.819-5.163l0.271-30.717c-9.546-0.217-16.861-0.327-21.944-0.327
	c-5.482,0-11.271,0.109-17.371,0.327l0.163,31.567c0,2.266,0.18,3.704,0.541,4.313c0.36,0.611,1.299,1.177,2.815,1.699
	c0.361,0.131,3.321,0.894,8.879,2.288v3.856c-8.833-0.48-15.077-0.719-18.732-0.719c-4.525,0-10.009,0.239-16.452,0.719v-3.856
	c3.916-1.045,6.833-1.786,8.755-2.222c1.45-0.304,2.374-0.74,2.773-1.307c0.544-0.74,0.816-2.287,0.816-4.64
	c0.109-8.322,0.163-20.216,0.163-35.685l-0.272-32.351v-2.091c0-1.525-0.208-2.582-0.623-3.17s-1.29-1.079-2.626-1.471l-8.987-2.091
	v-3.856c7.334,0.48,13.452,0.719,18.354,0.719c5.156,0,10.802-0.239,16.938-0.719v3.856l-9.177,2.157
	c-1.166,0.349-1.967,0.839-2.404,1.471c-0.437,0.632-0.655,1.754-0.655,3.366l-0.272,30.979c5.598,0.13,11.505,0.196,17.722,0.196
	C162.799,112.998,170.015,112.933,176.413,112.802z"/>
<path fill="#FDFEFF" d="M233.906,70.351v3.879c-1.201,0.352-2.092,0.592-2.676,0.723c-4.561,1.009-7.201,1.962-7.92,2.86
	c-0.722,0.899-1.082,2.904-1.082,6.016v2.301l-0.256,26.431l0.153,38.396c0,3.068,0.353,5.019,1.056,5.851
	c0.701,0.833,3.111,1.557,7.227,2.17c0.789,0.131,1.938,0.395,3.445,0.789v3.879c-5.521-0.483-10.836-0.723-15.944-0.723
	c-5.281,0-11.077,0.24-17.386,0.723v-3.879c0.994-0.351,1.748-0.569,2.264-0.658c4.867-1.008,7.654-1.939,8.357-2.794
	s1.055-3.013,1.055-6.476l-0.104-3.288l0.154-24.129c0-24.808-0.052-38.528-0.154-41.158c-0.068-1.446-0.436-2.564-1.101-3.353
	c-0.666-0.789-3.252-1.731-7.759-2.827c-0.614-0.175-1.521-0.46-2.715-0.855V70.35c7.453,0.483,13.273,0.723,17.465,0.723
	C222.658,71.074,227.965,70.834,233.906,70.351z"/>
<path fill="#FFFFFF" d="M84.166,202.37l-4.998,0.087c-1.24-5.674-2.605-9.811-4.098-12.411c-1.492-2.599-3.731-4.618-6.717-6.058
	c-2.986-1.44-6.32-2.129-10.003-2.063c-5.218,0.091-9.347,1.63-12.387,4.613s-4.524,6.563-4.452,10.735
	c0.064,3.685,1.39,6.882,3.98,9.59c2.545,2.707,8.714,6.078,18.506,10.109c9.792,4.03,16.479,8.26,20.059,12.684
	c3.537,4.471,5.355,9.525,5.454,15.164c0.088,5.064-1.136,9.796-3.668,14.193c-2.534,4.397-6.398,7.939-11.592,10.629
	c-5.195,2.689-10.817,4.086-16.868,4.191c-4.122,0.071-8.262-0.256-12.418-0.98c-4.157-0.729-9.147-2.015-14.969-3.865
	c0.549-6.266,0.734-14.563,0.554-24.896l5.064-0.088c1.561,6.627,3.142,11.258,4.742,13.893c1.6,2.633,3.99,4.776,7.173,6.43
	c3.182,1.652,6.654,2.445,10.42,2.381c5.165-0.09,9.67-1.634,13.516-4.631c3.845-2.997,5.722-7.137,5.63-12.418
	c-0.075-4.307-1.545-8.098-4.409-11.377c-2.908-3.234-9.143-6.844-18.708-10.828c-9.566-3.984-15.981-7.854-19.248-11.609
	c-3.267-3.712-4.945-8.182-5.036-13.41c-0.079-4.563,1.138-8.939,3.653-13.129c2.515-4.188,6.261-7.531,11.24-10.035
	c4.978-2.502,10.164-3.801,15.557-3.896c6.489-0.112,14.366,1.326,23.628,4.313c-0.107,6.479-0.148,10.384-0.125,11.713
	C83.693,194.105,83.866,197.762,84.166,202.37z"/>
<path fill="#FFFFFF" d="M73.578,201.854h-4.533c0.745-7.627,1.413-16.176,2.001-25.644c17.373,0.481,29.764,0.724,37.177,0.724
	c6.157,0,17.373-0.24,33.647-0.724c0.51,9.774,1.099,18.322,1.767,25.644h-4.416c-1.841-8.021-3.036-12.724-3.584-14.104
	c-0.548-1.381-1.341-2.367-2.379-2.959c-1.038-0.592-3.671-0.888-7.901-0.888h-13.042c-0.314,11.66-0.471,26.08-0.471,43.264
	c0,15.956,0.156,26.738,0.471,32.35c0.078,1.314,0.373,2.215,0.883,2.695c0.667,0.614,3.905,1.557,9.714,2.827
	c0.549,0.089,1.374,0.286,2.473,0.592v3.88c-7.771-0.482-14.699-0.724-20.782-0.724c-5.77,0-11.677,0.239-17.721,0.724v-3.88
	c1.374-0.396,2.414-0.657,3.121-0.789c5.376-1.008,8.478-1.862,9.302-2.563c0.353-0.351,0.618-0.844,0.795-1.479
	c0.176-0.636,0.324-5.49,0.441-14.564c0.156-14.025,0.235-24.414,0.235-31.164c0-11.791-0.079-22.18-0.235-31.166H86.53
	l-2.532,0.066c-2.237,0-3.709,0.262-4.416,0.787c-1.099,0.746-2.081,2.324-2.943,4.734
	C75.971,191.333,74.951,195.454,73.578,201.854z"/>
<path fill="#FDFEFF" d="M164.029,173.152h4.348c6.212,15.453,13.85,32.976,22.914,52.568l16.082,33.998
	c0.734,1.202,1.541,2.094,2.415,2.672c0.599,0.4,3.979,1.469,10.146,3.207v3.939c-8.375-0.49-14.541-0.734-18.496-0.734
	c-4.051,0-10.953,0.244-20.707,0.734v-3.939c5.566-1.113,8.812-2.005,9.731-2.673s1.381-1.446,1.381-2.338
	c0-0.937-0.483-2.517-1.448-4.742l-7.014-16.299c-9.755-0.088-16.853-0.133-21.295-0.133l-18.891,0.133l-7.258,16.899
	c-1.197,2.717-1.794,4.408-1.794,5.076c0,0.58,0.287,1.059,0.863,1.437c0.575,0.379,3.255,1.06,8.041,2.037
	c0.506,0.134,1.219,0.334,2.14,0.603v3.939c-7.868-0.49-13.413-0.734-16.633-0.734c-4.096,0-9.341,0.244-15.736,0.734v-3.939
	c4.187-0.892,7.063-1.894,8.627-3.007c1.149-0.846,2.347-2.271,3.589-4.274c2.623-4.408,9.294-18.592,20.016-42.549L164.029,173.152
	z M145.84,232.868c6.39,0.178,10.964,0.267,13.723,0.267c0.827,0,7.883-0.089,21.169-0.267l-17.46-40.07L145.84,232.868z"/>
<path fill="#FDFEFF" d="M193.889,201.006h-4.734c0.777-7.732,1.476-16.4,2.091-26.002c18.142,0.49,31.081,0.732,38.821,0.732
	c6.43,0,18.143-0.242,35.138-0.732c0.532,9.912,1.146,18.58,1.845,26.002h-4.611c-1.922-8.134-3.17-12.9-3.742-14.301
	s-1.4-2.4-2.483-3c-1.084-0.602-3.834-0.9-8.251-0.9h-13.618c-0.329,11.824-0.491,26.447-0.491,43.87
	c0,16.181,0.162,27.113,0.491,32.804c0.081,1.332,0.39,2.244,0.923,2.732c0.695,0.623,4.077,1.578,10.145,2.867
	c0.572,0.089,1.434,0.289,2.582,0.6v3.934c-8.115-0.488-15.35-0.732-21.702-0.732c-6.024,0-12.194,0.244-18.506,0.732v-3.934
	c1.435-0.4,2.521-0.666,3.259-0.8c5.614-1.022,8.854-1.889,9.714-2.601c0.368-0.355,0.646-0.855,0.83-1.5s0.338-5.567,0.461-14.769
	c0.163-14.224,0.246-24.757,0.246-31.603c0-11.956-0.083-22.49-0.246-31.604h-14.632l-2.645,0.066c-2.336,0-3.873,0.267-4.61,0.801
	c-1.147,0.756-2.173,2.355-3.074,4.801C196.387,190.339,195.32,194.518,193.889,201.006z"/>
<path fill="#FFFFFF" d="M281.208,217.382h14.571c5.621,0,8.934-0.165,9.938-0.495s1.815-1.002,2.438-2.017
	c0.623-1.015,1.396-3.944,2.318-8.793c0.12-0.484,0.302-1.233,0.542-2.248h3.975c-0.441,7.272-0.662,12.87-0.662,16.793
	c0,4.056,0.221,9.608,0.662,16.66h-3.975c-1.165-6.39-1.888-9.96-2.167-10.71c-0.402-1.059-1.104-1.818-2.107-2.281
	c-1.004-0.463-3.995-0.693-8.973-0.693h-16.5l0.301,38.875h25.23l2.229-0.066c3.452,0,5.62-0.153,6.503-0.463
	c1.524-0.572,2.87-1.53,4.035-2.877c1.162-1.344,3.312-5.146,6.441-11.403c0.321-0.616,0.803-1.521,1.445-2.711h4.155
	c-0.481,1.411-2.973,9.696-7.468,24.858c-14.612-0.484-27.961-0.728-40.043-0.728c-8.431,0-17.744,0.242-27.94,0.728v-3.9
	l9.756-2.313c1.565-0.484,2.528-0.97,2.89-1.455c0.604-0.836,0.903-2.578,0.903-5.224v-1.188l0.302-15.537
	c0.039-2.998,0.061-8.881,0.061-17.652c0-12.736-0.041-22.07-0.12-27.999c-0.081-5.928-0.281-9.289-0.603-10.082
	c-0.24-0.528-0.613-0.959-1.113-1.289c-0.504-0.331-2.359-0.894-5.57-1.687l-6.504-1.588v-3.899
	c7.547,0.485,16.56,0.728,27.037,0.728c5.74,0,19.39-0.242,40.946-0.728c0.08,7.626,0.563,15.163,1.445,22.61h-4.216
	c-1.605-5.993-2.91-9.982-3.914-11.967c-0.683-1.365-1.525-2.27-2.528-2.711c-1.325-0.572-4.256-0.859-8.792-0.859h-24.326
	l-0.422,21.289L281.208,217.382z"/>
<path fill="#FDFEFF" d="M124.859,285.752v1.438c-0.644,0.131-1.123,0.22-1.435,0.269c-2.447,0.374-3.863,0.728-4.25,1.06
	c-0.387,0.334-0.58,1.076-0.58,2.229v0.853l-0.138,9.793l0.083,14.227c0,1.137,0.188,1.859,0.565,2.168s1.67,0.576,3.877,0.804
	c0.423,0.05,1.039,0.146,1.849,0.293v1.437c-2.962-0.178-5.813-0.268-8.555-0.268c-2.833,0-5.942,0.09-9.327,0.268v-1.437
	c0.533-0.13,0.938-0.211,1.214-0.243c2.612-0.373,4.107-0.72,4.484-1.035c0.377-0.316,0.566-1.117,0.566-2.399l-0.055-1.218
	l0.083-8.94c0-9.19-0.028-14.274-0.083-15.249c-0.037-0.535-0.234-0.949-0.591-1.242s-1.745-0.642-4.162-1.048
	c-0.33-0.063-0.815-0.171-1.456-0.315v-1.438c3.998,0.179,7.121,0.269,9.369,0.269C118.825,286.02,121.671,285.932,124.859,285.752z
	"/>
<path fill="#FFFFFF" d="M168.629,301.109h5.816c2.244,0,3.566-0.062,3.968-0.184c0.399-0.121,0.726-0.367,0.974-0.738
	c0.248-0.373,0.557-1.449,0.926-3.229c0.049-0.178,0.121-0.453,0.217-0.825h1.587c-0.177,2.669-0.265,4.724-0.265,6.163
	c0,1.488,0.088,3.527,0.265,6.115h-1.587c-0.465-2.346-0.754-3.656-0.865-3.932c-0.16-0.389-0.441-0.668-0.842-0.838
	c-0.401-0.17-1.596-0.255-3.581-0.255h-6.587l0.12,14.269h10.074l0.889-0.024c1.379,0,2.244-0.056,2.598-0.169
	c0.607-0.211,1.146-0.563,1.609-1.057c0.465-0.492,1.322-1.889,2.572-4.186c0.129-0.227,0.32-0.559,0.577-0.994h1.658
	c-0.192,0.518-1.187,3.559-2.979,9.123c-5.834-0.179-11.164-0.268-15.987-0.268c-3.366,0-7.084,0.089-11.155,0.268v-1.433
	l3.895-0.849c0.625-0.178,1.01-0.355,1.154-0.534c0.24-0.308,0.36-0.946,0.36-1.917v-0.438l0.12-5.701
	c0.016-1.101,0.024-3.261,0.024-6.479c0-4.675-0.016-8.101-0.048-10.276c-0.032-2.175-0.112-3.408-0.24-3.699
	c-0.096-0.194-0.245-0.353-0.445-0.474c-0.201-0.122-0.942-0.328-2.224-0.618l-2.597-0.582v-1.433
	c3.013,0.178,6.611,0.267,10.794,0.267c2.292,0,7.741-0.089,16.348-0.267c0.031,2.799,0.225,5.563,0.578,8.298h-1.685
	c-0.642-2.199-1.162-3.664-1.563-4.393c-0.271-0.5-0.608-0.832-1.01-0.994c-0.527-0.21-1.697-0.315-3.51-0.315h-9.712l-0.168,7.813
	L168.629,301.109z"/>
<path fill="#FFFFFF" d="M243.177,294.471l-2.089,0.037c-0.512-2.063-1.079-3.563-1.699-4.509c-0.621-0.942-1.556-1.675-2.802-2.192
	c-1.246-0.521-2.639-0.77-4.178-0.742c-2.181,0.039-3.907,0.603-5.181,1.688c-1.274,1.086-1.896,2.39-1.871,3.906
	c0.023,1.339,0.574,2.5,1.654,3.481c1.062,0.981,3.637,2.201,7.725,3.656c4.088,1.456,6.877,2.986,8.369,4.592
	c1.474,1.621,2.229,3.457,2.265,5.508c0.032,1.84-0.483,3.561-1.546,5.16c-1.063,1.603-2.682,2.894-4.854,3.877
	c-2.175,0.98-4.525,1.493-7.054,1.537c-1.724,0.03-3.452-0.084-5.188-0.345c-1.736-0.26-3.819-0.724-6.25-1.392
	c0.233-2.276,0.319-5.293,0.254-9.049l2.117-0.037c0.646,2.408,1.301,4.088,1.967,5.043c0.666,0.957,1.664,1.733,2.992,2.332
	c1.328,0.598,2.777,0.884,4.352,0.855c2.158-0.038,4.043-0.604,5.652-1.695c1.608-1.094,2.396-2.601,2.363-4.52
	c-0.027-1.564-0.637-2.941-1.83-4.133c-1.213-1.172-3.814-2.479-7.809-3.917c-3.992-1.439-6.67-2.841-8.031-4.201
	c-1.361-1.347-2.059-2.97-2.092-4.869c-0.029-1.659,0.484-3.252,1.539-4.776s2.623-2.742,4.706-3.656
	c2.083-0.916,4.251-1.393,6.505-1.432c2.712-0.048,6.001,0.469,9.869,1.545c-0.053,2.354-0.072,3.774-0.064,4.258
	C242.986,291.468,243.057,292.797,243.177,294.471z"/>
<path fill="#FFFFFF" d="M262.525,285.752v1.438c-0.644,0.131-1.121,0.22-1.435,0.269c-2.446,0.374-3.862,0.728-4.25,1.06
	c-0.387,0.334-0.579,1.076-0.579,2.229v0.853l-0.139,9.793l0.083,14.227c0,1.137,0.188,1.859,0.565,2.168s1.67,0.576,3.877,0.804
	c0.422,0.05,1.039,0.146,1.849,0.293v1.437c-2.961-0.178-5.813-0.268-8.556-0.268c-2.832,0-5.94,0.09-9.325,0.268v-1.437
	c0.532-0.13,0.938-0.211,1.214-0.243c2.611-0.373,4.105-0.72,4.482-1.035c0.377-0.316,0.566-1.117,0.566-2.399l-0.055-1.218
	l0.082-8.94c0-9.19-0.027-14.274-0.082-15.249c-0.037-0.535-0.234-0.949-0.592-1.242c-0.356-0.293-1.744-0.642-4.162-1.048
	c-0.33-0.063-0.814-0.171-1.455-0.315v-1.438c3.998,0.179,7.121,0.269,9.369,0.269C256.492,286.02,259.338,285.932,262.525,285.752z
	"/>
<path fill="#FFFFFF" d="M263.297,295.279h-1.871c0.309-2.813,0.583-5.965,0.826-9.455c7.174,0.178,12.291,0.267,15.352,0.267
	c2.543,0,7.174-0.089,13.896-0.267c0.21,3.604,0.453,6.757,0.729,9.455h-1.824c-0.76-2.957-1.254-4.69-1.479-5.2
	c-0.228-0.509-0.554-0.872-0.981-1.091c-0.43-0.219-1.517-0.327-3.264-0.327h-5.385c-0.13,4.3-0.193,9.618-0.193,15.954
	c0,5.885,0.063,9.861,0.193,11.93c0.032,0.484,0.152,0.816,0.364,0.994c0.274,0.227,1.612,0.574,4.012,1.043
	c0.228,0.032,0.567,0.105,1.021,0.218v1.431c-3.209-0.178-6.068-0.267-8.58-0.267c-2.383,0-4.822,0.089-7.317,0.267V318.8
	c0.565-0.146,0.996-0.241,1.288-0.291c2.22-0.37,3.501-0.687,3.841-0.944c0.146-0.129,0.257-0.313,0.328-0.547
	c0.073-0.232,0.134-2.023,0.183-5.369c0.064-5.174,0.099-9.004,0.099-11.494c0-4.348-0.033-8.18-0.099-11.492h-5.785l-1.045,0.023
	c-0.925,0-1.533,0.098-1.824,0.291c-0.453,0.274-0.858,0.856-1.215,1.746C264.286,291.4,263.864,292.92,263.297,295.279z"/>
<path fill="#FFFFFF" d="M25.506,287.652v-1.442c3.361,0.181,6.262,0.271,8.701,0.271c2.548,0,5.484-0.09,8.81-0.271v1.442
	c-0.56,0.113-0.985,0.195-1.274,0.244c-2.548,0.358-3.984,0.668-4.31,0.93c-0.326,0.261-0.506,0.807-0.542,1.638
	c-0.108,2.218-0.163,6.39-0.163,12.517c0,4.092,0.122,6.869,0.366,8.336c0.244,1.468,0.84,2.724,1.789,3.766
	c0.949,1.044,2.254,1.846,3.917,2.408c1.663,0.562,3.434,0.844,5.313,0.844c2.837,0,5.137-0.529,6.898-1.589
	c1.762-1.06,2.928-2.474,3.497-4.242c0.569-1.769,0.854-5.228,0.854-10.377c0-6.813-0.063-10.83-0.189-12.054
	c-0.054-0.536-0.226-0.915-0.515-1.137c-0.289-0.22-1.645-0.564-4.066-1.039c-0.253-0.049-0.642-0.129-1.166-0.244v-1.441
	c3.542,0.18,6.234,0.27,8.078,0.27c2.078,0,4.445-0.09,7.102-0.27v1.441c-0.504,0.132-0.881,0.221-1.133,0.27
	c-2.393,0.439-3.75,0.783-4.074,1.027c-0.324,0.244-0.521,0.668-0.593,1.271c-0.196,1.286-0.313,5.084-0.353,11.391
	c-0.018,4.873-0.118,7.971-0.298,9.291c-0.235,1.824-0.66,3.296-1.274,4.412c-0.614,1.117-1.559,2.176-2.833,3.179
	c-1.274,1.002-2.733,1.739-4.377,2.212c-2.169,0.619-4.437,0.929-6.804,0.929c-2.638,0-4.992-0.293-7.061-0.88
	c-2.069-0.587-3.673-1.381-4.812-2.384c-1.138-1.002-1.988-2.185-2.548-3.544c-0.561-1.361-0.84-3.338-0.84-5.93l0.108-11.099
	c0-4.123-0.018-6.444-0.054-6.968c-0.072-0.798-0.208-1.336-0.407-1.613c-0.145-0.229-0.361-0.398-0.65-0.513
	c-0.217-0.099-1.473-0.351-3.768-0.759C26.545,287.896,26.103,287.798,25.506,287.652z"/>
<path fill="#FFFFFF" d="M65.747,287.574v-1.422c2.142,0.178,3.829,0.266,5.061,0.266c0.995,0,2.774-0.088,5.339-0.266l7.204,8.552
	c0.659,0.755,5.749,6.608,15.27,17.56c0.017-2.248,0.025-3.877,0.025-4.89c0-2.394-0.076-6.769-0.228-13.128
	c-0.068-2.971-0.148-4.584-0.241-4.842c-0.093-0.256-0.288-0.489-0.583-0.697c-0.296-0.209-1.476-0.498-3.539-0.867
	c-0.271-0.049-0.668-0.137-1.192-0.266v-1.422c3.01,0.178,5.403,0.266,7.178,0.266c1.725,0,4.109-0.088,7.153-0.266v1.422
	c-0.457,0.113-0.795,0.186-1.015,0.217c-2.266,0.45-3.526,0.747-3.779,0.893c-0.187,0.096-0.339,0.24-0.457,0.434
	c-0.169,0.257-0.288,0.738-0.355,1.445c-0.017,0.305-0.055,2.492-0.114,6.563s-0.088,8.009-0.088,11.814
	c0,4.496,0.084,8.293,0.253,11.393l-1.649,0.723l-10.577-12.479l-13.875-15.854l0.127,14.239c0.084,6.231,0.178,9.556,0.279,9.974
	c0.067,0.289,0.219,0.539,0.457,0.748c0.372,0.32,1.631,0.658,3.779,1.012c0.254,0.031,0.634,0.104,1.142,0.217v1.421
	c-2.587-0.177-4.769-0.265-6.544-0.265c-1.488,0-4.084,0.088-7.787,0.265v-1.421c0.591-0.128,1.04-0.225,1.344-0.289
	c2.029-0.337,3.204-0.65,3.526-0.939c0.186-0.145,0.321-0.394,0.406-0.746c0.169-0.738,0.287-3.532,0.355-8.383
	c0.084-6.871,0.127-10.936,0.127-12.188c0-4.03-0.06-6.271-0.178-6.721c-0.067-0.32-0.288-0.59-0.659-0.808
	c-0.373-0.217-1.97-0.55-4.794-0.999C66.813,287.791,66.356,287.703,65.747,287.574z"/>
<path fill="#FFFFFF" d="M143.06,320.447h-1.783c-2.341-6.141-5.196-13.063-8.563-20.766c-2.809-6.414-4.413-9.951-4.808-10.611
	c-0.271-0.436-0.594-0.771-0.973-1.004c-0.379-0.232-1.72-0.641-4.025-1.221v-1.427c3.89,0.179,6.447,0.267,7.672,0.267
	c1.747,0,4.304-0.088,7.671-0.267v1.427c-0.324,0.081-0.567,0.137-0.729,0.17c-1.765,0.387-2.805,0.696-3.12,0.93
	c-0.315,0.234-0.473,0.505-0.473,0.811c0,0.161,0.027,0.34,0.081,0.532c0.324,1.177,1.672,4.667,4.047,10.471l5.126,12.648
	c2.218-5.127,4.156-9.875,5.815-14.244c2.092-5.465,3.209-8.496,3.354-9.093c0.036-0.129,0.054-0.241,0.054-0.338
	c0-0.308-0.135-0.558-0.405-0.75c-0.396-0.273-1.711-0.678-3.944-1.209v-1.354c0.108,0,0.756,0.023,1.945,0.073
	c2.773,0.129,4.556,0.192,5.349,0.192c1.53,0,3.358-0.088,5.483-0.267v1.354c-1.873,0.435-3.062,0.816-3.565,1.146
	c-0.504,0.331-1.026,1.053-1.567,2.164c-1.099,2.225-3.863,8.783-8.293,19.678L143.06,320.447z"/>
<path fill="#FFFFFF" d="M187.723,286.666v-1.469c4.393,0.183,7.916,0.273,10.567,0.273c1.524,0,2.951-0.017,4.276-0.05
	c1.758-0.065,2.977-0.101,3.656-0.101c3.232,0,5.67,0.764,7.312,2.291c1.624,1.543,2.437,3.625,2.437,6.248
	c0,1.76-0.369,3.314-1.107,4.668c-0.737,1.353-1.803,2.494-3.195,3.423c-1.012,0.665-2.455,1.254-4.329,1.768l8.283,10.802
	c1.028,1.344,1.675,2.133,1.938,2.363c0.416,0.35,0.955,0.646,1.617,0.896c0.93,0.365,2.495,0.787,4.701,1.27v1.469
	c-2.62-0.184-4.525-0.273-5.72-0.273c-1.376,0-2.785,0.091-4.228,0.273c-0.746-1.244-1.758-2.809-3.033-4.691
	c-1.277-1.885-2.058-3-2.338-3.348c-0.166-0.199-0.324-0.408-0.474-0.623l-5.471-7.518c-1.476-0.033-2.968-0.141-4.476-0.324
	l0.197,12.547c0.033,0.496,0.184,0.871,0.448,1.119c0.397,0.332,1.641,0.688,3.729,1.07c0.299,0.05,0.754,0.148,1.367,0.299v1.469
	c-3.001-0.184-5.646-0.273-7.933-0.273c-2.454,0-5.197,0.091-8.231,0.273v-1.469l1.069-0.225c2.37-0.448,3.718-0.817,4.041-1.107
	s0.51-0.809,0.56-1.556c0.033-0.481,0.074-4.746,0.125-12.794l-0.101-11.699c-0.017-1.792-0.062-2.82-0.138-3.086
	c-0.073-0.266-0.235-0.465-0.483-0.598c-0.813-0.433-2.099-0.789-3.854-1.07C188.675,286.865,188.27,286.782,187.723,286.666z
	 M198.143,301.898c1.724,0.184,3.059,0.273,4.002,0.273c3.019,0,5.252-0.673,6.703-2.02c1.449-1.348,2.176-3.217,2.176-5.61
	c0-2.094-0.644-3.748-1.928-4.962c-1.285-1.213-3.154-1.818-5.607-1.818c-0.879,0-2.61,0.1-5.197,0.299L198.143,301.898z"/>
<path fill="#FFFFFF" d="M301.066,320.333v-1.461c0.582-0.116,1.016-0.198,1.299-0.248c2.064-0.33,3.313-0.66,3.746-0.991
	c0.25-0.197,0.441-0.697,0.574-1.498c0.135-0.801,0.201-3.125,0.201-6.973l-0.025-3.318c-1.398-2.213-3.713-5.697-6.943-10.451
	l-4.546-6.539c-0.333-0.381-0.741-0.703-1.224-0.967c-0.75-0.412-1.982-0.826-3.697-1.238v-1.461
	c2.631,0.182,4.971,0.271,7.02,0.271c1.998,0,4.445-0.091,7.344-0.271v1.461c-1.916,0.479-3.02,0.826-3.311,1.041
	s-0.438,0.438-0.438,0.668c0,0.215,0.142,0.562,0.425,1.041c1.5,2.574,4.351,7.055,8.549,13.44c2.098-3.3,4.838-7.803,8.219-13.512
	c0.35-0.579,0.523-0.976,0.523-1.19c0-0.23-0.092-0.404-0.274-0.521c-0.532-0.33-1.697-0.653-3.496-0.968v-1.461
	c3.047,0.182,5.261,0.271,6.643,0.271c1.663,0,3.71-0.091,6.14-0.271v1.461c-2.048,0.396-3.497,0.863-4.347,1.398
	c-0.85,0.537-1.856,1.664-3.021,3.381c-2.53,3.732-5.537,8.355-9.018,13.871c-0.017,0.825-0.024,1.313-0.024,1.461
	c0,5.746,0.033,8.913,0.101,9.499c0.066,0.587,0.25,1.013,0.55,1.275c0.466,0.362,1.864,0.752,4.196,1.164
	c0.198,0.032,0.489,0.091,0.874,0.174v1.461c-3.099-0.183-5.604-0.272-7.52-0.272C308.052,320.061,305.213,320.152,301.066,320.333z
	"/>
<rect x="59.167" y="182" fill="#931C25" width="41.417" height="23.168"/>
<rect x="59.625" y="175.438" fill="#FCFCFC" width="82.375" height="5.313"/>
<rect x="86.417" y="268.25" fill="#931C25" width="62.958" height="10.375"/>
<rect x="180.249" y="268.25" fill="#931C25" width="69.459" height="10.375"/>
<rect x="246.416" y="268.417" fill="#931C25" width="84.959" height="10.375"/>
<rect x="311.468" y="252.92" transform="matrix(-0.1084 0.9941 -0.9941 -0.1084 621.6786 -43.2136)" fill="#931C25" width="37.498" height="8.496"/>
<rect x="234.291" y="182.25" fill="#931C25" width="31.793" height="23.168"/>
<rect x="263.916" y="187.25" fill="#931C25" width="4.209" height="15.918"/>
<rect x="188.916" y="174" fill="#931C25" width="136.043" height="2.543"/>
<rect x="315.603" y="50.12" transform="matrix(-0.9671 -0.2543 0.2543 -0.9671 614.1144 191.5549)" fill="#931C25" width="7.668" height="11.936"/>
<rect x="57.167" y="26" fill="#931C25" width="6.583" height="10.293"/>
<rect x="22.292" y="25.5" fill="#931C25" width="6.583" height="10.293"/>
<path fill="#911D2B" d="M265.8,189.654c-1.923,0-3.281-1.58-3.281-3.687c0-2.163,1.414-3.687,3.394-3.687
	c1.981,0,3.338,1.521,3.338,3.687c0,2.106-1.301,3.687-3.393,3.687H265.8z"/>
<rect x="142" y="174.5" fill="#931C25" width="5.75" height="28.293"/>
<rect x="184.666" y="175.333" fill="#931C25" width="6.584" height="29.793"/>
<rect x="24.833" y="242.666" fill="#931C25" width="6.583" height="28.96"/>
<rect x="112.083" y="182.104" fill="#931C25" width="18.583" height="10.293"/>
<path fill="#911D2B" d="M129.479,193.052c-3.078,0-5.251-2.358-5.251-5.5c0-3.226,2.264-5.499,5.432-5.499
	c3.171,0,5.342,2.269,5.342,5.499c0,3.142-2.082,5.5-5.429,5.5H129.479z"/>
<rect x="197.19" y="154.767" fill="#931C25" width="7.333" height="12.333"/>
<rect x="196.857" y="68.768" fill="#931C25" width="7.332" height="12.333"/>
<rect x="110.023" y="68.934" fill="#931C25" width="43" height="2.667"/>
<rect x="154.19" y="69.018" fill="#931C25" width="84.667" height="2.667"/>
<rect x="113.357" y="162.767" fill="#931C25" width="123.001" height="2.667"/>
<rect x="230.356" y="157.934" fill="#931C25" width="6.166" height="6.167"/>
<rect x="230.356" y="70.767" fill="#931C25" width="6.166" height="6.167"/>
<rect x="314.523" y="16.768" fill="#931C25" width="6.166" height="44.912"/>
<rect x="302.75" y="191.433" fill="#931C25" width="24.25" height="17.567"/>
<rect x="304" y="230.683" fill="#931C25" width="24.25" height="22.317"/>
<rect x="129.279" y="193.829" fill="#931C25" width="18.25" height="9.567"/>
<rect x="130.25" y="193.683" fill="#931C25" width="19.75" height="8.317"/>
<rect x="65.833" y="284.501" fill="#931C25" width="1.834" height="6.999"/>
<rect x="106.833" y="285.001" fill="#931C25" width="1.834" height="6.999"/>
<rect x="122.833" y="284.501" fill="#931C25" width="1.834" height="6.999"/>
<rect x="159.167" y="284.001" fill="#931C25" width="1.834" height="6.999"/>
<path fill="#911D2B" d="M127.916,197.313c-3.078,0-5.251-2.358-5.251-5.5c0-3.226,2.264-5.499,5.432-5.499
	c3.171,0,5.342,2.269,5.342,5.499c0,3.142-2.082,5.5-5.429,5.5H127.916z"/>
<path fill="#911D2B" d="M131.166,194.739c-3.078,0-5.251-2.718-5.251-6.339c0-3.718,2.264-6.338,5.432-6.338
	c3.171,0,5.342,2.614,5.342,6.338c0,3.621-2.082,6.339-5.429,6.339H131.166z"/>
<path fill="#911D2B" d="M136.888,197.216c-1.063,0.177-2.3-2.634-2.948-6.543c-0.665-4.015-0.351-6.974,0.744-7.154
	c1.096-0.182,2.313,2.517,2.979,6.537c0.647,3.91,0.414,6.964-0.743,7.155L136.888,197.216z"/>
<path fill="#911D2B" d="M131.041,193.052c-3.078,0-5.251-2.358-5.251-5.5c0-3.226,2.264-5.499,5.432-5.499
	c3.171,0,5.342,2.269,5.342,5.499c0,3.142-2.082,5.5-5.429,5.5H131.041z"/>
<rect x="145.875" y="232.812" fill="#931C25" width="34.781" height="7.938"/>
<rect x="179.875" y="232.897" transform="matrix(-0.9272 0.3745 -0.3745 -0.9272 437.9757 389.5536)" fill="#931C25" width="2.521" height="8.874"/>
<rect x="144.219" y="232.772" transform="matrix(-0.9272 -0.3745 0.3745 -0.9272 191.5292 511.6389)" fill="#931C25" width="2.521" height="8.874"/>
<rect x="144.542" y="227.895" fill="#FCFCFC" width="38.364" height="5.938"/>
<rect x="177.859" y="262.531" fill="#931C25" width="7.281" height="7.938"/>
<rect x="140.875" y="260.312" fill="#931C25" width="5.531" height="11.688"/>
<rect x="250.543" y="263.812" fill="#931C25" width="9.113" height="7.938"/>
<rect x="83.208" y="263.812" fill="#931C25" width="7.448" height="7.938"/>
<rect x="185.876" y="310.42" fill="#931C25" width="4.78" height="13.33"/>
<rect x="185.478" y="283.166" fill="#931C25" width="4.788" height="13.33"/>
<rect x="122.876" y="310.67" fill="#931C25" width="4.78" height="13.33"/>
<rect x="104.126" y="308.67" fill="#931C25" width="4.78" height="13.33"/>
<rect x="23.37" y="282.71" fill="#931C25" width="4.78" height="13.33"/>
<rect x="218.794" y="308.154" fill="#931C25" width="3.341" height="13.33"/>
<rect x="220.376" y="319.125" transform="matrix(-0.9339 -0.3575 0.3575 -0.9339 315.9935 699.4944)" fill="#931C25" width="4.54" height="2.834"/>
<rect x="244.313" y="284.75" fill="#931C25" width="1.499" height="7.875"/>
<rect x="244.313" y="316.688" fill="#931C25" width="1.499" height="7.875"/>
<rect x="260.688" y="285" fill="#931C25" width="1.499" height="10.5"/>
<rect x="261.875" y="285.516" fill="#931C25" width="30.063" height="0.531"/>
<rect x="260.729" y="317.646" fill="#931C25" width="1.874" height="3.042"/>
<rect x="291.438" y="285.146" fill="#931C25" width="1.499" height="10.458"/>
<rect x="289.938" y="284.833" fill="#931C25" width="1.729" height="1.188"/>
<rect x="302.021" y="281.979" fill="#931C25" width="2.999" height="7.875"/>
<rect x="313.482" y="282.419" transform="matrix(-0.8491 -0.5283 0.5283 -0.8491 427.7499 706.8723)" fill="#931C25" width="2.73" height="19.83"/>
<rect x="314.355" y="284.917" fill="#931C25" width="3.562" height="3.667"/>
<rect x="303.719" y="282.503" transform="matrix(-0.8404 0.542 -0.542 -0.8404 719.9607 372.8011)" fill="#931C25" width="2.73" height="19.83"/>
<rect x="317.983" y="282.411" transform="matrix(-0.8491 -0.5283 0.5283 -0.8491 434.575 714.4921)" fill="#931C25" width="2.73" height="25.517"/>
<rect x="326.275" y="284.856" transform="matrix(-0.8492 -0.5281 0.5281 -0.8492 453.7159 702.0428)" fill="#931C25" width="1.651" height="2.76"/>
<rect x="316.028" y="283.088" transform="matrix(-0.8489 -0.5285 0.5285 -0.8489 430.0433 713.0671)" fill="#FFFFFF" width="1.807" height="23.969"/>
<rect x="316.765" y="282.034" transform="matrix(-0.8026 -0.5965 0.5965 -0.8026 397.257 721.1995)" fill="#FFFFFF" width="2.398" height="25.664"/>
<rect x="319.418" y="283.781" fill="#931C25" width="7.238" height="1.667"/>
<rect x="188.75" y="193.933" fill="#931C25" width="10" height="8.317"/>
</svg>
